<svg width="360" height="360" viewBox="0 0 360 360" fill="none" xmlns="http://www.w3.org/2000/svg">
<rect width="360" height="360" rx="42" fill="url(#paint0_linear_1_5)"/>
<rect width="360" height="360" rx="42" fill="#BD01FF" fill-opacity="0.25"/>
<path d="M160.56 133.272C166.448 133.272 171.483 134.125 175.664 135.832C179.845 137.453 183.899 140.013 187.824 143.512L181.168 150.936C177.84 148.291 174.555 146.371 171.312 145.176C168.155 143.896 164.741 143.256 161.072 143.256C156.464 143.256 152.667 144.323 149.68 146.456C146.693 148.589 145.2 151.704 145.2 155.8C145.2 158.36 145.712 160.536 146.736 162.328C147.76 164.035 149.637 165.613 152.368 167.064C155.184 168.515 159.237 170.051 164.528 171.672C170.075 173.379 174.683 175.213 178.352 177.176C182.021 179.139 184.965 181.869 187.184 185.368C189.488 188.781 190.64 193.133 190.64 198.424C190.64 203.544 189.36 208.067 186.8 211.992C184.325 215.917 180.699 218.989 175.92 221.208C171.227 223.427 165.637 224.536 159.152 224.536C146.949 224.536 136.965 220.739 129.2 213.144L135.856 205.72C139.44 208.621 143.067 210.84 146.736 212.376C150.405 213.827 154.501 214.552 159.024 214.552C164.485 214.552 169.008 213.229 172.592 210.584C176.176 207.853 177.968 203.928 177.968 198.808C177.968 195.907 177.413 193.517 176.304 191.64C175.195 189.677 173.275 187.928 170.544 186.392C167.899 184.856 164.016 183.32 158.896 181.784C149.851 179.053 143.237 175.768 139.056 171.928C134.875 168.088 132.784 162.883 132.784 156.312C132.784 151.875 133.936 147.907 136.24 144.408C138.629 140.909 141.915 138.179 146.096 136.216C150.363 134.253 155.184 133.272 160.56 133.272ZM220.71 134.808V223H208.55V134.808H220.71Z" fill="white"/>
<path d="M119.8 265.96C121.64 265.96 123.213 266.227 124.52 266.76C125.827 267.267 127.093 268.067 128.32 269.16L126.24 271.48C125.2 270.653 124.173 270.053 123.16 269.68C122.173 269.28 121.107 269.08 119.96 269.08C118.52 269.08 117.333 269.413 116.4 270.08C115.467 270.747 115 271.72 115 273C115 273.8 115.16 274.48 115.48 275.04C115.8 275.573 116.387 276.067 117.24 276.52C118.12 276.973 119.387 277.453 121.04 277.96C122.773 278.493 124.213 279.067 125.36 279.68C126.507 280.293 127.427 281.147 128.12 282.24C128.84 283.307 129.2 284.667 129.2 286.32C129.2 287.92 128.8 289.333 128 290.56C127.227 291.787 126.093 292.747 124.6 293.44C123.133 294.133 121.387 294.48 119.36 294.48C115.547 294.48 112.427 293.293 110 290.92L112.08 288.6C113.2 289.507 114.333 290.2 115.48 290.68C116.627 291.133 117.907 291.36 119.32 291.36C121.027 291.36 122.44 290.947 123.56 290.12C124.68 289.267 125.24 288.04 125.24 286.44C125.24 285.533 125.067 284.787 124.72 284.2C124.373 283.587 123.773 283.04 122.92 282.56C122.093 282.08 120.88 281.6 119.28 281.12C116.453 280.267 114.387 279.24 113.08 278.04C111.773 276.84 111.12 275.213 111.12 273.16C111.12 271.773 111.48 270.533 112.2 269.44C112.947 268.347 113.973 267.493 115.28 266.88C116.613 266.267 118.12 265.96 119.8 265.96ZM138.597 266.44V294H134.797V266.44H138.597ZM150.394 266.44V290.68H161.714L161.274 294H146.594V266.44H150.394ZM170.316 266.44V294H166.516V266.44H170.316ZM187.953 265.96C189.606 265.96 190.993 266.173 192.113 266.6C193.259 267.027 194.419 267.72 195.593 268.68L193.513 271.12C191.833 269.76 190.059 269.08 188.193 269.08C185.899 269.08 184.046 269.96 182.633 271.72C181.246 273.48 180.553 276.307 180.553 280.2C180.553 283.987 181.246 286.787 182.633 288.6C184.019 290.387 185.859 291.28 188.153 291.28C189.326 291.28 190.353 291.08 191.233 290.68C192.113 290.28 193.046 289.72 194.033 289L195.913 291.4C195.059 292.28 193.966 293.013 192.633 293.6C191.299 294.187 189.766 294.48 188.033 294.48C185.793 294.48 183.793 293.933 182.033 292.84C180.299 291.72 178.939 290.093 177.953 287.96C176.993 285.8 176.513 283.213 176.513 280.2C176.513 277.187 177.019 274.613 178.033 272.48C179.046 270.32 180.419 268.693 182.153 267.6C183.886 266.507 185.819 265.96 187.953 265.96ZM209.754 265.96C212.074 265.96 214.101 266.52 215.834 267.64C217.594 268.733 218.954 270.347 219.914 272.48C220.901 274.613 221.394 277.2 221.394 280.24C221.394 283.227 220.901 285.787 219.914 287.92C218.954 290.053 217.594 291.68 215.834 292.8C214.101 293.92 212.074 294.48 209.754 294.48C207.434 294.48 205.394 293.933 203.634 292.84C201.901 291.747 200.541 290.133 199.554 288C198.594 285.867 198.114 283.293 198.114 280.28C198.114 277.32 198.594 274.76 199.554 272.6C200.541 270.44 201.914 268.8 203.674 267.68C205.434 266.533 207.461 265.96 209.754 265.96ZM209.754 269.08C207.354 269.08 205.487 269.987 204.154 271.8C202.821 273.613 202.154 276.44 202.154 280.28C202.154 284.093 202.821 286.893 204.154 288.68C205.514 290.467 207.381 291.36 209.754 291.36C214.821 291.36 217.354 287.653 217.354 280.24C217.354 272.8 214.821 269.08 209.754 269.08ZM246.929 294H241.849L230.649 270.6C230.809 272.44 230.929 274.147 231.009 275.72C231.116 277.267 231.169 279.147 231.169 281.36V294H227.609V266.44H232.569L243.889 289.88C243.809 289.187 243.703 287.973 243.569 286.24C243.436 284.507 243.369 282.92 243.369 281.48V266.44H246.929V294Z" fill="white"/>
<path d="M233.52 51.44C234.96 51.44 236.253 51.64 237.4 52.04C238.547 52.44 239.64 53.04 240.68 53.84L239.12 56.16C238.16 55.5467 237.24 55.0933 236.36 54.8C235.507 54.5067 234.6 54.36 233.64 54.36C232.44 54.36 231.493 54.6133 230.8 55.12C230.107 55.6 229.76 56.2667 229.76 57.12C229.76 57.9733 230.08 58.64 230.72 59.12C231.387 59.6 232.573 60.0667 234.28 60.52C236.627 61.1067 238.373 61.9067 239.52 62.92C240.693 63.9333 241.28 65.32 241.28 67.08C241.28 69.16 240.467 70.7467 238.84 71.84C237.24 72.9333 235.28 73.48 232.96 73.48C229.76 73.48 227.107 72.56 225 70.72L226.96 68.48C228.747 69.84 230.72 70.52 232.88 70.52C234.267 70.52 235.36 70.24 236.16 69.68C236.987 69.0933 237.4 68.3067 237.4 67.32C237.4 66.6 237.253 66.0267 236.96 65.6C236.667 65.1467 236.16 64.76 235.44 64.44C234.72 64.0933 233.667 63.7333 232.28 63.36C230.04 62.7733 228.413 61.9867 227.4 61C226.413 60.0133 225.92 58.76 225.92 57.24C225.92 56.1467 226.24 55.16 226.88 54.28C227.547 53.3733 228.453 52.68 229.6 52.2C230.773 51.6933 232.08 51.44 233.52 51.44ZM250.152 51.92V73H246.472V51.92H250.152ZM248.272 41.8C249.045 41.8 249.672 42.04 250.152 42.52C250.632 43 250.872 43.6 250.872 44.32C250.872 45.04 250.632 45.64 250.152 46.12C249.672 46.5733 249.045 46.8 248.272 46.8C247.525 46.8 246.912 46.5733 246.432 46.12C245.952 45.64 245.712 45.04 245.712 44.32C245.712 43.6 245.952 43 246.432 42.52C246.912 42.04 247.525 41.8 248.272 41.8ZM258.721 67.92C259.521 67.92 260.188 68.1867 260.721 68.72C261.254 69.2533 261.521 69.9067 261.521 70.68C261.521 71.4533 261.254 72.12 260.721 72.68C260.188 73.2133 259.521 73.48 258.721 73.48C257.948 73.48 257.294 73.2133 256.761 72.68C256.228 72.12 255.961 71.4533 255.961 70.68C255.961 69.9067 256.228 69.2533 256.761 68.72C257.294 68.1867 257.948 67.92 258.721 67.92ZM283.3 43.44V73H280.06L279.7 70.08C279.006 71.1467 278.14 71.9867 277.1 72.6C276.06 73.1867 274.9 73.48 273.62 73.48C271.113 73.48 269.153 72.4933 267.74 70.52C266.353 68.5467 265.66 65.8933 265.66 62.56C265.66 60.4 265.993 58.48 266.66 56.8C267.326 55.12 268.286 53.8133 269.54 52.88C270.793 51.92 272.26 51.44 273.94 51.44C276.1 51.44 277.993 52.3067 279.62 54.04V43L283.3 43.44ZM274.42 70.56C275.54 70.56 276.5 70.3067 277.3 69.8C278.1 69.2667 278.873 68.48 279.62 67.44V57.12C278.926 56.2133 278.18 55.5333 277.38 55.08C276.606 54.6 275.726 54.36 274.74 54.36C273.113 54.36 271.846 55.04 270.94 56.4C270.06 57.76 269.62 59.7867 269.62 62.48C269.62 65.2 270.033 67.2267 270.86 68.56C271.686 69.8933 272.873 70.56 274.42 70.56ZM306.806 61.84C306.806 62.4533 306.779 63.08 306.726 63.72H293.286C293.446 66.04 294.033 67.7467 295.046 68.84C296.059 69.9333 297.366 70.48 298.966 70.48C299.979 70.48 300.913 70.3333 301.766 70.04C302.619 69.7467 303.513 69.28 304.446 68.64L306.046 70.84C303.806 72.6 301.353 73.48 298.686 73.48C295.753 73.48 293.459 72.52 291.806 70.6C290.179 68.68 289.366 66.04 289.366 62.68C289.366 60.4933 289.713 58.56 290.406 56.88C291.126 55.1733 292.139 53.84 293.446 52.88C294.779 51.92 296.339 51.44 298.126 51.44C300.926 51.44 303.073 52.36 304.566 54.2C306.059 56.04 306.806 58.5867 306.806 61.84ZM303.166 60.76C303.166 58.68 302.753 57.0933 301.926 56C301.099 54.9067 299.859 54.36 298.206 54.36C295.193 54.36 293.553 56.5733 293.286 61H303.166V60.76ZM328.007 51.92L320.847 73H316.407L309.127 51.92H313.127L318.647 69.72L324.127 51.92H328.007Z" fill="white"/>
<path d="M48.28 51.92L41.12 73H36.68L29.4 51.92H33.4L38.92 69.72L44.4 51.92H48.28ZM59.8475 45.84C62.8075 45.84 65.0342 47.0267 66.5275 49.4C68.0475 51.7467 68.8075 55.16 68.8075 59.64C68.8075 64.12 68.0475 67.5467 66.5275 69.92C65.0342 72.2933 62.8075 73.48 59.8475 73.48C56.8875 73.48 54.6475 72.2933 53.1275 69.92C51.6342 67.5467 50.8875 64.12 50.8875 59.64C50.8875 55.16 51.6342 51.7467 53.1275 49.4C54.6475 47.0267 56.8875 45.84 59.8475 45.84ZM59.8475 48.76C58.1142 48.76 56.8208 49.6133 55.9675 51.32C55.1408 53.0267 54.7275 55.8 54.7275 59.64C54.7275 63.48 55.1408 66.2667 55.9675 68C56.8208 69.7067 58.1142 70.56 59.8475 70.56C61.5542 70.56 62.8342 69.7067 63.6875 68C64.5408 66.2667 64.9675 63.48 64.9675 59.64C64.9675 55.8267 64.5408 53.0667 63.6875 51.36C62.8342 49.6267 61.5542 48.76 59.8475 48.76ZM75.7522 67.92C76.5522 67.92 77.2189 68.1867 77.7522 68.72C78.2855 69.2533 78.5522 69.9067 78.5522 70.68C78.5522 71.4533 78.2855 72.12 77.7522 72.68C77.2189 73.2133 76.5522 73.48 75.7522 73.48C74.9789 73.48 74.3255 73.2133 73.7922 72.68C73.2589 72.12 72.9922 71.4533 72.9922 70.68C72.9922 69.9067 73.2589 69.2533 73.7922 68.72C74.3255 68.1867 74.9789 67.92 75.7522 67.92ZM89.5372 46.24V73H85.8572V50.16L79.6172 53.96L78.0172 51.36L86.2972 46.24H89.5372ZM98.6819 67.92C99.4819 67.92 100.149 68.1867 100.682 68.72C101.215 69.2533 101.482 69.9067 101.482 70.68C101.482 71.4533 101.215 72.12 100.682 72.68C100.149 73.2133 99.4819 73.48 98.6819 73.48C97.9085 73.48 97.2552 73.2133 96.7219 72.68C96.1885 72.12 95.9219 71.4533 95.9219 70.68C95.9219 69.9067 96.1885 69.2533 96.7219 68.72C97.2552 68.1867 97.9085 67.92 98.6819 67.92ZM114.223 45.84C117.183 45.84 119.409 47.0267 120.903 49.4C122.423 51.7467 123.183 55.16 123.183 59.64C123.183 64.12 122.423 67.5467 120.903 69.92C119.409 72.2933 117.183 73.48 114.223 73.48C111.263 73.48 109.023 72.2933 107.503 69.92C106.009 67.5467 105.263 64.12 105.263 59.64C105.263 55.16 106.009 51.7467 107.503 49.4C109.023 47.0267 111.263 45.84 114.223 45.84ZM114.223 48.76C112.489 48.76 111.196 49.6133 110.343 51.32C109.516 53.0267 109.103 55.8 109.103 59.64C109.103 63.48 109.516 66.2667 110.343 68C111.196 69.7067 112.489 70.56 114.223 70.56C115.929 70.56 117.209 69.7067 118.063 68C118.916 66.2667 119.343 63.48 119.343 59.64C119.343 55.8267 118.916 53.0667 118.063 51.36C117.209 49.6267 115.929 48.76 114.223 48.76Z" fill="white"/>
<defs>
<linearGradient id="paint0_linear_1_5" x1="180" y1="0" x2="180" y2="360" gradientUnits="userSpaceOnUse">
<stop stop-color="#1DDC47"/>
<stop offset="0.958333" stop-color="#25C9A1" stop-opacity="0"/>
</linearGradient>
</defs>
</svg>
