<svg width="368" height="368" viewBox="0 0 368 368" fill="none" xmlns="http://www.w3.org/2000/svg">
<g filter="url(#filter0_d_1_5)">
<rect x="4" width="360" height="360" rx="42" fill="url(#paint0_linear_1_5)"/>
<rect x="4" width="360" height="360" rx="42" fill="#BD01FF" fill-opacity="0.25"/>
<path d="M164.56 133.272C170.448 133.272 175.483 134.125 179.664 135.832C183.845 137.453 187.899 140.013 191.824 143.512L185.168 150.936C181.84 148.291 178.555 146.371 175.312 145.176C172.155 143.896 168.741 143.256 165.072 143.256C160.464 143.256 156.667 144.323 153.68 146.456C150.693 148.589 149.2 151.704 149.2 155.8C149.2 158.36 149.712 160.536 150.736 162.328C151.76 164.035 153.637 165.613 156.368 167.064C159.184 168.515 163.237 170.051 168.528 171.672C174.075 173.379 178.683 175.213 182.352 177.176C186.021 179.139 188.965 181.869 191.184 185.368C193.488 188.781 194.64 193.133 194.64 198.424C194.64 203.544 193.36 208.067 190.8 211.992C188.325 215.917 184.699 218.989 179.92 221.208C175.227 223.427 169.637 224.536 163.152 224.536C150.949 224.536 140.965 220.739 133.2 213.144L139.856 205.72C143.44 208.621 147.067 210.84 150.736 212.376C154.405 213.827 158.501 214.552 163.024 214.552C168.485 214.552 173.008 213.229 176.592 210.584C180.176 207.853 181.968 203.928 181.968 198.808C181.968 195.907 181.413 193.517 180.304 191.64C179.195 189.677 177.275 187.928 174.544 186.392C171.899 184.856 168.016 183.32 162.896 181.784C153.851 179.053 147.237 175.768 143.056 171.928C138.875 168.088 136.784 162.883 136.784 156.312C136.784 151.875 137.936 147.907 140.24 144.408C142.629 140.909 145.915 138.179 150.096 136.216C154.363 134.253 159.184 133.272 164.56 133.272ZM224.71 134.808V223H212.55V134.808H224.71Z" fill="white"/>
<path d="M123.8 265.96C125.64 265.96 127.213 266.227 128.52 266.76C129.827 267.267 131.093 268.067 132.32 269.16L130.24 271.48C129.2 270.653 128.173 270.053 127.16 269.68C126.173 269.28 125.107 269.08 123.96 269.08C122.52 269.08 121.333 269.413 120.4 270.08C119.467 270.747 119 271.72 119 273C119 273.8 119.16 274.48 119.48 275.04C119.8 275.573 120.387 276.067 121.24 276.52C122.12 276.973 123.387 277.453 125.04 277.96C126.773 278.493 128.213 279.067 129.36 279.68C130.507 280.293 131.427 281.147 132.12 282.24C132.84 283.307 133.2 284.667 133.2 286.32C133.2 287.92 132.8 289.333 132 290.56C131.227 291.787 130.093 292.747 128.6 293.44C127.133 294.133 125.387 294.48 123.36 294.48C119.547 294.48 116.427 293.293 114 290.92L116.08 288.6C117.2 289.507 118.333 290.2 119.48 290.68C120.627 291.133 121.907 291.36 123.32 291.36C125.027 291.36 126.44 290.947 127.56 290.12C128.68 289.267 129.24 288.04 129.24 286.44C129.24 285.533 129.067 284.787 128.72 284.2C128.373 283.587 127.773 283.04 126.92 282.56C126.093 282.08 124.88 281.6 123.28 281.12C120.453 280.267 118.387 279.24 117.08 278.04C115.773 276.84 115.12 275.213 115.12 273.16C115.12 271.773 115.48 270.533 116.2 269.44C116.947 268.347 117.973 267.493 119.28 266.88C120.613 266.267 122.12 265.96 123.8 265.96ZM142.597 266.44V294H138.797V266.44H142.597ZM154.394 266.44V290.68H165.714L165.274 294H150.594V266.44H154.394ZM174.316 266.44V294H170.516V266.44H174.316ZM191.953 265.96C193.606 265.96 194.993 266.173 196.113 266.6C197.259 267.027 198.419 267.72 199.593 268.68L197.513 271.12C195.833 269.76 194.059 269.08 192.193 269.08C189.899 269.08 188.046 269.96 186.633 271.72C185.246 273.48 184.553 276.307 184.553 280.2C184.553 283.987 185.246 286.787 186.633 288.6C188.019 290.387 189.859 291.28 192.153 291.28C193.326 291.28 194.353 291.08 195.233 290.68C196.113 290.28 197.046 289.72 198.033 289L199.913 291.4C199.059 292.28 197.966 293.013 196.633 293.6C195.299 294.187 193.766 294.48 192.033 294.48C189.793 294.48 187.793 293.933 186.033 292.84C184.299 291.72 182.939 290.093 181.953 287.96C180.993 285.8 180.513 283.213 180.513 280.2C180.513 277.187 181.019 274.613 182.033 272.48C183.046 270.32 184.419 268.693 186.153 267.6C187.886 266.507 189.819 265.96 191.953 265.96ZM213.754 265.96C216.074 265.96 218.101 266.52 219.834 267.64C221.594 268.733 222.954 270.347 223.914 272.48C224.901 274.613 225.394 277.2 225.394 280.24C225.394 283.227 224.901 285.787 223.914 287.92C222.954 290.053 221.594 291.68 219.834 292.8C218.101 293.92 216.074 294.48 213.754 294.48C211.434 294.48 209.394 293.933 207.634 292.84C205.901 291.747 204.541 290.133 203.554 288C202.594 285.867 202.114 283.293 202.114 280.28C202.114 277.32 202.594 274.76 203.554 272.6C204.541 270.44 205.914 268.8 207.674 267.68C209.434 266.533 211.461 265.96 213.754 265.96ZM213.754 269.08C211.354 269.08 209.487 269.987 208.154 271.8C206.821 273.613 206.154 276.44 206.154 280.28C206.154 284.093 206.821 286.893 208.154 288.68C209.514 290.467 211.381 291.36 213.754 291.36C218.821 291.36 221.354 287.653 221.354 280.24C221.354 272.8 218.821 269.08 213.754 269.08ZM250.929 294H245.849L234.649 270.6C234.809 272.44 234.929 274.147 235.009 275.72C235.116 277.267 235.169 279.147 235.169 281.36V294H231.609V266.44H236.569L247.889 289.88C247.809 289.187 247.703 287.973 247.569 286.24C247.436 284.507 247.369 282.92 247.369 281.48V266.44H250.929V294Z" fill="white"/>
<path d="M208.52 51.44C209.96 51.44 211.253 51.64 212.4 52.04C213.547 52.44 214.64 53.04 215.68 53.84L214.12 56.16C213.16 55.5467 212.24 55.0933 211.36 54.8C210.507 54.5067 209.6 54.36 208.64 54.36C207.44 54.36 206.493 54.6133 205.8 55.12C205.107 55.6 204.76 56.2667 204.76 57.12C204.76 57.9733 205.08 58.64 205.72 59.12C206.387 59.6 207.573 60.0667 209.28 60.52C211.627 61.1067 213.373 61.9067 214.52 62.92C215.693 63.9333 216.28 65.32 216.28 67.08C216.28 69.16 215.467 70.7467 213.84 71.84C212.24 72.9333 210.28 73.48 207.96 73.48C204.76 73.48 202.107 72.56 200 70.72L201.96 68.48C203.747 69.84 205.72 70.52 207.88 70.52C209.267 70.52 210.36 70.24 211.16 69.68C211.987 69.0933 212.4 68.3067 212.4 67.32C212.4 66.6 212.253 66.0267 211.96 65.6C211.667 65.1467 211.16 64.76 210.44 64.44C209.72 64.0933 208.667 63.7333 207.28 63.36C205.04 62.7733 203.413 61.9867 202.4 61C201.413 60.0133 200.92 58.76 200.92 57.24C200.92 56.1467 201.24 55.16 201.88 54.28C202.547 53.3733 203.453 52.68 204.6 52.2C205.773 51.6933 207.08 51.44 208.52 51.44ZM225.152 51.92V73H221.472V51.92H225.152ZM223.272 41.8C224.045 41.8 224.672 42.04 225.152 42.52C225.632 43 225.872 43.6 225.872 44.32C225.872 45.04 225.632 45.64 225.152 46.12C224.672 46.5733 224.045 46.8 223.272 46.8C222.525 46.8 221.912 46.5733 221.432 46.12C220.952 45.64 220.712 45.04 220.712 44.32C220.712 43.6 220.952 43 221.432 42.52C221.912 42.04 222.525 41.8 223.272 41.8ZM241.881 46.24V73H238.201V50.16L231.961 53.96L230.361 51.36L238.641 46.24H241.881ZM266.346 63.48V66.4H262.866V73H259.306V66.4H247.866V63.76L255.906 45.84L258.986 47.12L251.746 63.48H259.346L259.666 56.28H262.866V63.48H266.346ZM272.315 67.92C273.115 67.92 273.781 68.1867 274.315 68.72C274.848 69.2533 275.115 69.9067 275.115 70.68C275.115 71.4533 274.848 72.12 274.315 72.68C273.781 73.2133 273.115 73.48 272.315 73.48C271.541 73.48 270.888 73.2133 270.355 72.68C269.821 72.12 269.555 71.4533 269.555 70.68C269.555 69.9067 269.821 69.2533 270.355 68.72C270.888 68.1867 271.541 67.92 272.315 67.92ZM296.893 43.44V73H293.653L293.293 70.08C292.6 71.1467 291.733 71.9867 290.693 72.6C289.653 73.1867 288.493 73.48 287.213 73.48C284.707 73.48 282.747 72.4933 281.333 70.52C279.947 68.5467 279.253 65.8933 279.253 62.56C279.253 60.4 279.587 58.48 280.253 56.8C280.92 55.12 281.88 53.8133 283.133 52.88C284.387 51.92 285.853 51.44 287.533 51.44C289.693 51.44 291.587 52.3067 293.213 54.04V43L296.893 43.44ZM288.013 70.56C289.133 70.56 290.093 70.3067 290.893 69.8C291.693 69.2667 292.467 68.48 293.213 67.44V57.12C292.52 56.2133 291.773 55.5333 290.973 55.08C290.2 54.6 289.32 54.36 288.333 54.36C286.707 54.36 285.44 55.04 284.533 56.4C283.653 57.76 283.213 59.7867 283.213 62.48C283.213 65.2 283.627 67.2267 284.453 68.56C285.28 69.8933 286.467 70.56 288.013 70.56ZM320.4 61.84C320.4 62.4533 320.373 63.08 320.32 63.72H306.88C307.04 66.04 307.626 67.7467 308.64 68.84C309.653 69.9333 310.96 70.48 312.56 70.48C313.573 70.48 314.506 70.3333 315.36 70.04C316.213 69.7467 317.106 69.28 318.04 68.64L319.64 70.84C317.4 72.6 314.946 73.48 312.28 73.48C309.346 73.48 307.053 72.52 305.4 70.6C303.773 68.68 302.96 66.04 302.96 62.68C302.96 60.4933 303.306 58.56 304 56.88C304.72 55.1733 305.733 53.84 307.04 52.88C308.373 51.92 309.933 51.44 311.72 51.44C314.52 51.44 316.666 52.36 318.16 54.2C319.653 56.04 320.4 58.5867 320.4 61.84ZM316.76 60.76C316.76 58.68 316.346 57.0933 315.52 56C314.693 54.9067 313.453 54.36 311.8 54.36C308.786 54.36 307.146 56.5733 306.88 61H316.76V60.76ZM341.6 51.92L334.44 73H330L322.72 51.92H326.72L332.24 69.72L337.72 51.92H341.6Z" fill="white"/>
<path d="M52.28 51.92L45.12 73H40.68L33.4 51.92H37.4L42.92 69.72L48.4 51.92H52.28ZM63.8475 45.84C66.8075 45.84 69.0342 47.0267 70.5275 49.4C72.0475 51.7467 72.8075 55.16 72.8075 59.64C72.8075 64.12 72.0475 67.5467 70.5275 69.92C69.0342 72.2933 66.8075 73.48 63.8475 73.48C60.8875 73.48 58.6475 72.2933 57.1275 69.92C55.6342 67.5467 54.8875 64.12 54.8875 59.64C54.8875 55.16 55.6342 51.7467 57.1275 49.4C58.6475 47.0267 60.8875 45.84 63.8475 45.84ZM63.8475 48.76C62.1142 48.76 60.8208 49.6133 59.9675 51.32C59.1408 53.0267 58.7275 55.8 58.7275 59.64C58.7275 63.48 59.1408 66.2667 59.9675 68C60.8208 69.7067 62.1142 70.56 63.8475 70.56C65.5542 70.56 66.8342 69.7067 67.6875 68C68.5408 66.2667 68.9675 63.48 68.9675 59.64C68.9675 55.8267 68.5408 53.0667 67.6875 51.36C66.8342 49.6267 65.5542 48.76 63.8475 48.76ZM79.7522 67.92C80.5522 67.92 81.2189 68.1867 81.7522 68.72C82.2855 69.2533 82.5522 69.9067 82.5522 70.68C82.5522 71.4533 82.2855 72.12 81.7522 72.68C81.2189 73.2133 80.5522 73.48 79.7522 73.48C78.9789 73.48 78.3255 73.2133 77.7922 72.68C77.2589 72.12 76.9922 71.4533 76.9922 70.68C76.9922 69.9067 77.2589 69.2533 77.7922 68.72C78.3255 68.1867 78.9789 67.92 79.7522 67.92ZM93.5372 46.24V73H89.8572V50.16L83.6172 53.96L82.0172 51.36L90.2972 46.24H93.5372ZM102.682 67.92C103.482 67.92 104.149 68.1867 104.682 68.72C105.215 69.2533 105.482 69.9067 105.482 70.68C105.482 71.4533 105.215 72.12 104.682 72.68C104.149 73.2133 103.482 73.48 102.682 73.48C101.909 73.48 101.255 73.2133 100.722 72.68C100.189 72.12 99.9219 71.4533 99.9219 70.68C99.9219 69.9067 100.189 69.2533 100.722 68.72C101.255 68.1867 101.909 67.92 102.682 67.92ZM118.223 45.84C121.183 45.84 123.409 47.0267 124.903 49.4C126.423 51.7467 127.183 55.16 127.183 59.64C127.183 64.12 126.423 67.5467 124.903 69.92C123.409 72.2933 121.183 73.48 118.223 73.48C115.263 73.48 113.023 72.2933 111.503 69.92C110.009 67.5467 109.263 64.12 109.263 59.64C109.263 55.16 110.009 51.7467 111.503 49.4C113.023 47.0267 115.263 45.84 118.223 45.84ZM118.223 48.76C116.489 48.76 115.196 49.6133 114.343 51.32C113.516 53.0267 113.103 55.8 113.103 59.64C113.103 63.48 113.516 66.2667 114.343 68C115.196 69.7067 116.489 70.56 118.223 70.56C119.929 70.56 121.209 69.7067 122.063 68C122.916 66.2667 123.343 63.48 123.343 59.64C123.343 55.8267 122.916 53.0667 122.063 51.36C121.209 49.6267 119.929 48.76 118.223 48.76Z" fill="white"/>
</g>
<defs>
<filter id="filter0_d_1_5" x="0" y="0" width="368" height="368" filterUnits="userSpaceOnUse" color-interpolation-filters="sRGB">
<feFlood flood-opacity="0" result="BackgroundImageFix"/>
<feColorMatrix in="SourceAlpha" type="matrix" values="0 0 0 0 0 0 0 0 0 0 0 0 0 0 0 0 0 0 127 0" result="hardAlpha"/>
<feOffset dy="4"/>
<feGaussianBlur stdDeviation="2"/>
<feComposite in2="hardAlpha" operator="out"/>
<feColorMatrix type="matrix" values="0 0 0 0 0 0 0 0 0 0 0 0 0 0 0 0 0 0 0.25 0"/>
<feBlend mode="normal" in2="BackgroundImageFix" result="effect1_dropShadow_1_5"/>
<feBlend mode="normal" in="SourceGraphic" in2="effect1_dropShadow_1_5" result="shape"/>
</filter>
<linearGradient id="paint0_linear_1_5" x1="184" y1="0" x2="184" y2="360" gradientUnits="userSpaceOnUse">
<stop stop-color="#1DDC47"/>
<stop offset="0.958333" stop-color="#25C9A1" stop-opacity="0"/>
</linearGradient>
</defs>
</svg>
